<svg width="289" height="29" viewBox="0 0 289 29" fill="none" xmlns="http://www.w3.org/2000/svg">
<rect width="69" height="29" fill="#314A71" fill-opacity="0.61"/>
<rect x="69" width="220" height="29" fill="#3F5679" fill-opacity="0.84"/>
<path d="M21.28 15.376C21.28 15.7067 21.2587 16.0053 21.216 16.272H14.48C14.5333 16.976 14.7947 17.5413 15.264 17.968C15.7333 18.3947 16.3093 18.608 16.992 18.608C17.9733 18.608 18.6667 18.1973 19.072 17.376H21.04C20.7733 18.1867 20.288 18.8533 19.584 19.376C18.8907 19.888 18.0267 20.144 16.992 20.144C16.1493 20.144 15.392 19.9573 14.72 19.584C14.0587 19.2 13.536 18.6667 13.152 17.984C12.7787 17.2907 12.592 16.4907 12.592 15.584C12.592 14.6773 12.7733 13.8827 13.136 13.2C13.5093 12.5067 14.0267 11.9733 14.688 11.6C15.36 11.2267 16.128 11.04 16.992 11.04C17.824 11.04 18.5653 11.2213 19.216 11.584C19.8667 11.9467 20.3733 12.4587 20.736 13.12C21.0987 13.7707 21.28 14.5227 21.28 15.376ZM19.376 14.8C19.3653 14.128 19.1253 13.5893 18.656 13.184C18.1867 12.7787 17.6053 12.576 16.912 12.576C16.2827 12.576 15.744 12.7787 15.296 13.184C14.848 13.5787 14.5813 14.1173 14.496 14.8H19.376ZM33.507 11.04C34.2003 11.04 34.819 11.184 35.363 11.472C35.9177 11.76 36.3497 12.1867 36.659 12.752C36.979 13.3173 37.139 14 37.139 14.8V20H35.331V15.072C35.331 14.2827 35.1337 13.68 34.739 13.264C34.3443 12.8373 33.8057 12.624 33.123 12.624C32.4403 12.624 31.8963 12.8373 31.491 13.264C31.0963 13.68 30.899 14.2827 30.899 15.072V20H29.091V15.072C29.091 14.2827 28.8937 13.68 28.499 13.264C28.1043 12.8373 27.5657 12.624 26.883 12.624C26.2003 12.624 25.6563 12.8373 25.251 13.264C24.8563 13.68 24.659 14.2827 24.659 15.072V20H22.835V11.184H24.659V12.192C24.9577 11.8293 25.3363 11.5467 25.795 11.344C26.2537 11.1413 26.7443 11.04 27.267 11.04C27.971 11.04 28.6003 11.1893 29.155 11.488C29.7097 11.7867 30.1363 12.2187 30.435 12.784C30.7017 12.2507 31.1177 11.8293 31.683 11.52C32.2483 11.2 32.8563 11.04 33.507 11.04ZM38.612 15.552C38.612 14.6667 38.7933 13.8827 39.156 13.2C39.5293 12.5173 40.0307 11.9893 40.66 11.616C41.3 11.232 42.004 11.04 42.772 11.04C43.4653 11.04 44.068 11.1787 44.58 11.456C45.1027 11.7227 45.5187 12.0587 45.828 12.464V11.184H47.668V20H45.828V18.688C45.5187 19.104 45.0973 19.4507 44.564 19.728C44.0307 20.0053 43.4227 20.144 42.74 20.144C41.9827 20.144 41.2893 19.952 40.66 19.568C40.0307 19.1733 39.5293 18.6293 39.156 17.936C38.7933 17.232 38.612 16.4373 38.612 15.552ZM45.828 15.584C45.828 14.976 45.7 14.448 45.444 14C45.1987 13.552 44.8733 13.2107 44.468 12.976C44.0627 12.7413 43.6253 12.624 43.156 12.624C42.6867 12.624 42.2493 12.7413 41.844 12.976C41.4387 13.2 41.108 13.536 40.852 13.984C40.6067 14.4213 40.484 14.944 40.484 15.552C40.484 16.16 40.6067 16.6933 40.852 17.152C41.108 17.6107 41.4387 17.9627 41.844 18.208C42.26 18.4427 42.6973 18.56 43.156 18.56C43.6253 18.56 44.0627 18.4427 44.468 18.208C44.8733 17.9733 45.1987 17.632 45.444 17.184C45.7 16.7253 45.828 16.192 45.828 15.584ZM50.7517 10.016C50.4211 10.016 50.1437 9.904 49.9197 9.68C49.6957 9.456 49.5837 9.17867 49.5837 8.848C49.5837 8.51733 49.6957 8.24 49.9197 8.016C50.1437 7.792 50.4211 7.68 50.7517 7.68C51.0717 7.68 51.3437 7.792 51.5677 8.016C51.7917 8.24 51.9037 8.51733 51.9037 8.848C51.9037 9.17867 51.7917 9.456 51.5677 9.68C51.3437 9.904 51.0717 10.016 50.7517 10.016ZM51.6477 11.184V20H49.8237V11.184H51.6477ZM55.6265 8.16V20H53.8025V8.16H55.6265Z" fill="white"/>
<path d="M76.688 15.584C76.688 14.688 76.8693 13.904 77.232 13.232C77.5947 12.5493 78.0907 12.0213 78.72 11.648C79.36 11.2747 80.0693 11.088 80.848 11.088C81.616 11.088 82.2827 11.2533 82.848 11.584C83.4133 11.9147 83.8347 12.3307 84.112 12.832V11.232H85.584V20H84.112V18.368C83.824 18.88 83.392 19.3067 82.816 19.648C82.2507 19.9787 81.5893 20.144 80.832 20.144C80.0533 20.144 79.3493 19.952 78.72 19.568C78.0907 19.184 77.5947 18.6453 77.232 17.952C76.8693 17.2587 76.688 16.4693 76.688 15.584ZM84.112 15.6C84.112 14.9387 83.9787 14.3627 83.712 13.872C83.4453 13.3813 83.0827 13.008 82.624 12.752C82.176 12.4853 81.68 12.352 81.136 12.352C80.592 12.352 80.096 12.48 79.648 12.736C79.2 12.992 78.8427 13.3653 78.576 13.856C78.3093 14.3467 78.176 14.9227 78.176 15.584C78.176 16.256 78.3093 16.8427 78.576 17.344C78.8427 17.8347 79.2 18.2133 79.648 18.48C80.096 18.736 80.592 18.864 81.136 18.864C81.68 18.864 82.176 18.736 82.624 18.48C83.0827 18.2133 83.4453 17.8347 83.712 17.344C83.9787 16.8427 84.112 16.2613 84.112 15.6ZM89.2605 8.16V20H87.8045V8.16H89.2605ZM94.766 18.656L97.486 11.232H99.038L95.598 20H93.902L90.462 11.232H92.03L94.766 18.656ZM108.231 15.28C108.231 15.5573 108.215 15.8507 108.183 16.16H101.175C101.228 17.024 101.521 17.7013 102.055 18.192C102.599 18.672 103.255 18.912 104.023 18.912C104.652 18.912 105.175 18.768 105.591 18.48C106.017 18.1813 106.316 17.7867 106.487 17.296H108.055C107.82 18.1387 107.351 18.8267 106.647 19.36C105.943 19.8827 105.068 20.144 104.023 20.144C103.191 20.144 102.444 19.9573 101.783 19.584C101.132 19.2107 100.62 18.6827 100.247 18C99.8734 17.3067 99.6868 16.5067 99.6868 15.6C99.6868 14.6933 99.8681 13.8987 100.231 13.216C100.593 12.5333 101.1 12.0107 101.751 11.648C102.412 11.2747 103.169 11.088 104.023 11.088C104.855 11.088 105.591 11.2693 106.231 11.632C106.871 11.9947 107.361 12.496 107.703 13.136C108.055 13.7653 108.231 14.48 108.231 15.28ZM106.727 14.976C106.727 14.4213 106.604 13.9467 106.359 13.552C106.113 13.1467 105.777 12.8427 105.351 12.64C104.935 12.4267 104.471 12.32 103.959 12.32C103.223 12.32 102.593 12.5547 102.071 13.024C101.559 13.4933 101.265 14.144 101.191 14.976H106.727ZM113.017 20.144C112.345 20.144 111.742 20.032 111.209 19.808C110.675 19.5733 110.254 19.2533 109.945 18.848C109.635 18.432 109.465 17.9573 109.433 17.424H110.937C110.979 17.8613 111.182 18.2187 111.545 18.496C111.918 18.7733 112.403 18.912 113.001 18.912C113.555 18.912 113.993 18.7893 114.313 18.544C114.633 18.2987 114.793 17.9893 114.793 17.616C114.793 17.232 114.622 16.9493 114.281 16.768C113.939 16.576 113.411 16.3893 112.697 16.208C112.046 16.0373 111.513 15.8667 111.097 15.696C110.691 15.5147 110.339 15.2533 110.041 14.912C109.753 14.56 109.609 14.1013 109.609 13.536C109.609 13.088 109.742 12.6773 110.009 12.304C110.275 11.9307 110.654 11.6373 111.145 11.424C111.635 11.2 112.195 11.088 112.825 11.088C113.795 11.088 114.579 11.3333 115.177 11.824C115.774 12.3147 116.094 12.9867 116.137 13.84H114.681C114.649 13.3813 114.462 13.0133 114.121 12.736C113.79 12.4587 113.342 12.32 112.777 12.32C112.254 12.32 111.838 12.432 111.529 12.656C111.219 12.88 111.065 13.1733 111.065 13.536C111.065 13.824 111.155 14.064 111.337 14.256C111.529 14.4373 111.763 14.5867 112.041 14.704C112.329 14.8107 112.723 14.9333 113.225 15.072C113.854 15.2427 114.366 15.4133 114.761 15.584C115.155 15.744 115.491 15.9893 115.769 16.32C116.057 16.6507 116.206 17.0827 116.217 17.616C116.217 18.096 116.083 18.528 115.817 18.912C115.55 19.296 115.171 19.6 114.681 19.824C114.201 20.0373 113.646 20.144 113.017 20.144ZM119.488 8.16V20H118.032V8.16H119.488ZM129.73 15.28C129.73 15.5573 129.714 15.8507 129.682 16.16H122.674C122.727 17.024 123.02 17.7013 123.554 18.192C124.098 18.672 124.754 18.912 125.522 18.912C126.151 18.912 126.674 18.768 127.09 18.48C127.516 18.1813 127.815 17.7867 127.986 17.296H129.554C129.319 18.1387 128.85 18.8267 128.146 19.36C127.442 19.8827 126.567 20.144 125.522 20.144C124.69 20.144 123.943 19.9573 123.282 19.584C122.631 19.2107 122.119 18.6827 121.746 18C121.372 17.3067 121.186 16.5067 121.186 15.6C121.186 14.6933 121.367 13.8987 121.73 13.216C122.092 12.5333 122.599 12.0107 123.25 11.648C123.911 11.2747 124.668 11.088 125.522 11.088C126.354 11.088 127.09 11.2693 127.73 11.632C128.37 11.9947 128.86 12.496 129.202 13.136C129.554 13.7653 129.73 14.48 129.73 15.28ZM128.226 14.976C128.226 14.4213 128.103 13.9467 127.858 13.552C127.612 13.1467 127.276 12.8427 126.85 12.64C126.434 12.4267 125.97 12.32 125.458 12.32C124.722 12.32 124.092 12.5547 123.57 13.024C123.058 13.4933 122.764 14.144 122.69 14.976H128.226ZM135.235 20.144C134.414 20.144 133.667 19.9573 132.995 19.584C132.334 19.2107 131.811 18.6827 131.427 18C131.054 17.3067 130.867 16.5067 130.867 15.6C130.867 14.704 131.059 13.9147 131.443 13.232C131.838 12.5387 132.371 12.0107 133.043 11.648C133.715 11.2747 134.467 11.088 135.299 11.088C136.131 11.088 136.883 11.2747 137.555 11.648C138.227 12.0107 138.755 12.5333 139.139 13.216C139.534 13.8987 139.731 14.6933 139.731 15.6C139.731 16.5067 139.529 17.3067 139.123 18C138.729 18.6827 138.19 19.2107 137.507 19.584C136.825 19.9573 136.067 20.144 135.235 20.144ZM135.235 18.864C135.758 18.864 136.249 18.7413 136.707 18.496C137.166 18.2507 137.534 17.8827 137.811 17.392C138.099 16.9013 138.243 16.304 138.243 15.6C138.243 14.896 138.105 14.2987 137.827 13.808C137.55 13.3173 137.187 12.9547 136.739 12.72C136.291 12.4747 135.806 12.352 135.283 12.352C134.75 12.352 134.259 12.4747 133.811 12.72C133.374 12.9547 133.022 13.3173 132.755 13.808C132.489 14.2987 132.355 14.896 132.355 15.6C132.355 16.3147 132.483 16.9173 132.739 17.408C133.006 17.8987 133.358 18.2667 133.795 18.512C134.233 18.7467 134.713 18.864 135.235 18.864ZM140.99 18.832C142.344 17.744 143.406 16.8533 144.174 16.16C144.942 15.456 145.587 14.7253 146.11 13.968C146.643 13.2 146.91 12.448 146.91 11.712C146.91 11.0187 146.739 10.4747 146.398 10.08C146.067 9.67467 145.528 9.472 144.782 9.472C144.056 9.472 143.491 9.70133 143.086 10.16C142.691 10.608 142.478 11.2107 142.446 11.968H141.038C141.08 10.7733 141.443 9.85067 142.126 9.2C142.808 8.54933 143.688 8.224 144.766 8.224C145.864 8.224 146.734 8.528 147.374 9.136C148.024 9.744 148.35 10.5813 148.35 11.648C148.35 12.5333 148.083 13.3973 147.55 14.24C147.027 15.072 146.43 15.808 145.758 16.448C145.086 17.0773 144.227 17.8133 143.182 18.656H148.686V19.872H140.99V18.832ZM150.129 14.096C150.129 12.2613 150.428 10.832 151.025 9.808C151.622 8.77333 152.668 8.256 154.161 8.256C155.644 8.256 156.684 8.77333 157.281 9.808C157.878 10.832 158.177 12.2613 158.177 14.096C158.177 15.9627 157.878 17.4133 157.281 18.448C156.684 19.4827 155.644 20 154.161 20C152.668 20 151.622 19.4827 151.025 18.448C150.428 17.4133 150.129 15.9627 150.129 14.096ZM156.737 14.096C156.737 13.168 156.673 12.384 156.545 11.744C156.428 11.0933 156.177 10.5707 155.793 10.176C155.42 9.78133 154.876 9.584 154.161 9.584C153.436 9.584 152.881 9.78133 152.497 10.176C152.124 10.5707 151.873 11.0933 151.745 11.744C151.628 12.384 151.569 13.168 151.569 14.096C151.569 15.056 151.628 15.8613 151.745 16.512C151.873 17.1627 152.124 17.6853 152.497 18.08C152.881 18.4747 153.436 18.672 154.161 18.672C154.876 18.672 155.42 18.4747 155.793 18.08C156.177 17.6853 156.428 17.1627 156.545 16.512C156.673 15.8613 156.737 15.056 156.737 14.096ZM159.936 14.096C159.936 12.2613 160.234 10.832 160.832 9.808C161.429 8.77333 162.474 8.256 163.968 8.256C165.45 8.256 166.49 8.77333 167.088 9.808C167.685 10.832 167.984 12.2613 167.984 14.096C167.984 15.9627 167.685 17.4133 167.088 18.448C166.49 19.4827 165.45 20 163.968 20C162.474 20 161.429 19.4827 160.832 18.448C160.234 17.4133 159.936 15.9627 159.936 14.096ZM166.544 14.096C166.544 13.168 166.48 12.384 166.352 11.744C166.234 11.0933 165.984 10.5707 165.6 10.176C165.226 9.78133 164.682 9.584 163.968 9.584C163.242 9.584 162.688 9.78133 162.304 10.176C161.93 10.5707 161.68 11.0933 161.552 11.744C161.434 12.384 161.376 13.168 161.376 14.096C161.376 15.056 161.434 15.8613 161.552 16.512C161.68 17.1627 161.93 17.6853 162.304 18.08C162.688 18.4747 163.242 18.672 163.968 18.672C164.682 18.672 165.226 18.4747 165.6 18.08C165.984 17.6853 166.234 17.1627 166.352 16.512C166.48 15.8613 166.544 15.056 166.544 14.096ZM169.567 18.832C170.921 17.744 171.983 16.8533 172.751 16.16C173.519 15.456 174.164 14.7253 174.687 13.968C175.22 13.2 175.487 12.448 175.487 11.712C175.487 11.0187 175.316 10.4747 174.975 10.08C174.644 9.67467 174.105 9.472 173.359 9.472C172.633 9.472 172.068 9.70133 171.663 10.16C171.268 10.608 171.055 11.2107 171.023 11.968H169.615C169.657 10.7733 170.02 9.85067 170.703 9.2C171.385 8.54933 172.265 8.224 173.343 8.224C174.441 8.224 175.311 8.528 175.951 9.136C176.601 9.744 176.927 10.5813 176.927 11.648C176.927 12.5333 176.66 13.3973 176.127 14.24C175.604 15.072 175.007 15.808 174.335 16.448C173.663 17.0773 172.804 17.8133 171.759 18.656H177.263V19.872H169.567V18.832ZM186.946 9.744C188.13 9.744 189.159 9.968 190.034 10.416C190.908 10.864 191.58 11.4933 192.05 12.304C192.519 13.104 192.754 14.032 192.754 15.088C192.754 15.9307 192.615 16.7413 192.338 17.52C192.06 18.288 191.655 18.912 191.122 19.392C190.599 19.872 189.986 20.112 189.282 20.112C188.748 20.112 188.338 19.9787 188.05 19.712C187.762 19.4453 187.596 19.0827 187.554 18.624C187.223 19.0827 186.802 19.4453 186.29 19.712C185.788 19.9787 185.255 20.112 184.69 20.112C183.879 20.112 183.239 19.8667 182.77 19.376C182.311 18.8747 182.082 18.2027 182.082 17.36C182.082 16.56 182.247 15.8133 182.578 15.12C182.919 14.4267 183.388 13.872 183.986 13.456C184.583 13.0293 185.26 12.816 186.018 12.816C187.031 12.816 187.714 13.2 188.066 13.968L188.242 12.976H189.506L188.706 17.6C188.674 17.8027 188.658 17.9893 188.658 18.16C188.658 18.8 188.94 19.12 189.506 19.12C189.932 19.12 190.3 18.9173 190.61 18.512C190.93 18.1067 191.17 17.6 191.33 16.992C191.49 16.3733 191.57 15.7653 191.57 15.168C191.57 13.7707 191.148 12.688 190.306 11.92C189.474 11.152 188.295 10.768 186.77 10.768C185.5 10.768 184.354 11.0773 183.33 11.696C182.316 12.304 181.522 13.1413 180.946 14.208C180.37 15.2747 180.082 16.4533 180.082 17.744C180.071 19.152 180.492 20.2347 181.346 20.992C182.199 21.76 183.383 22.144 184.898 22.144C185.9 22.144 186.786 21.9627 187.554 21.6L187.746 22.592C186.796 22.9867 185.751 23.184 184.61 23.184C183.468 23.184 182.46 22.9653 181.586 22.528C180.722 22.1013 180.05 21.4827 179.57 20.672C179.1 19.872 178.866 18.9387 178.866 17.872C178.866 16.368 179.212 14.9973 179.906 13.76C180.599 12.512 181.559 11.5307 182.786 10.816C184.023 10.1013 185.41 9.744 186.946 9.744ZM185.122 18.976C185.602 18.976 186.044 18.8373 186.45 18.56C186.855 18.272 187.175 17.888 187.41 17.408C187.644 16.9173 187.762 16.384 187.762 15.808C187.762 15.2533 187.607 14.8053 187.298 14.464C186.999 14.112 186.572 13.936 186.018 13.936C185.506 13.936 185.052 14.0907 184.658 14.4C184.274 14.6987 183.975 15.0987 183.762 15.6C183.548 16.0907 183.442 16.6027 183.442 17.136C183.442 17.7013 183.586 18.1493 183.874 18.48C184.162 18.8107 184.578 18.976 185.122 18.976ZM198.525 11.088C199.282 11.088 199.944 11.2533 200.509 11.584C201.085 11.9147 201.512 12.3307 201.789 12.832V11.232H203.261V20.192C203.261 20.992 203.09 21.7013 202.749 22.32C202.408 22.9493 201.917 23.44 201.277 23.792C200.648 24.144 199.912 24.32 199.069 24.32C197.917 24.32 196.957 24.048 196.189 23.504C195.421 22.96 194.968 22.2187 194.829 21.28H196.269C196.429 21.8133 196.76 22.24 197.261 22.56C197.762 22.8907 198.365 23.056 199.069 23.056C199.869 23.056 200.52 22.8053 201.021 22.304C201.533 21.8027 201.789 21.0987 201.789 20.192V18.352C201.501 18.864 201.074 19.2907 200.509 19.632C199.944 19.9733 199.282 20.144 198.525 20.144C197.746 20.144 197.037 19.952 196.397 19.568C195.768 19.184 195.272 18.6453 194.909 17.952C194.546 17.2587 194.365 16.4693 194.365 15.584C194.365 14.688 194.546 13.904 194.909 13.232C195.272 12.5493 195.768 12.0213 196.397 11.648C197.037 11.2747 197.746 11.088 198.525 11.088ZM201.789 15.6C201.789 14.9387 201.656 14.3627 201.389 13.872C201.122 13.3813 200.76 13.008 200.301 12.752C199.853 12.4853 199.357 12.352 198.813 12.352C198.269 12.352 197.773 12.48 197.325 12.736C196.877 12.992 196.52 13.3653 196.253 13.856C195.986 14.3467 195.853 14.9227 195.853 15.584C195.853 16.256 195.986 16.8427 196.253 17.344C196.52 17.8347 196.877 18.2133 197.325 18.48C197.773 18.736 198.269 18.864 198.813 18.864C199.357 18.864 199.853 18.736 200.301 18.48C200.76 18.2133 201.122 17.8347 201.389 17.344C201.656 16.8427 201.789 16.2613 201.789 15.6ZM216.025 11.072C216.708 11.072 217.316 11.216 217.849 11.504C218.383 11.7813 218.804 12.2027 219.113 12.768C219.423 13.3333 219.577 14.0213 219.577 14.832V20H218.137V15.04C218.137 14.1653 217.919 13.4987 217.481 13.04C217.055 12.5707 216.473 12.336 215.737 12.336C214.98 12.336 214.377 12.5813 213.929 13.072C213.481 13.552 213.257 14.2507 213.257 15.168V20H211.817V15.04C211.817 14.1653 211.599 13.4987 211.161 13.04C210.735 12.5707 210.153 12.336 209.417 12.336C208.66 12.336 208.057 12.5813 207.609 13.072C207.161 13.552 206.937 14.2507 206.937 15.168V20H205.481V11.232H206.937V12.496C207.225 12.0373 207.609 11.6853 208.089 11.44C208.58 11.1947 209.119 11.072 209.705 11.072C210.441 11.072 211.092 11.2373 211.657 11.568C212.223 11.8987 212.644 12.384 212.921 13.024C213.167 12.4053 213.572 11.9253 214.137 11.584C214.703 11.2427 215.332 11.072 216.025 11.072ZM221.182 15.584C221.182 14.688 221.363 13.904 221.726 13.232C222.088 12.5493 222.584 12.0213 223.214 11.648C223.854 11.2747 224.563 11.088 225.342 11.088C226.11 11.088 226.776 11.2533 227.342 11.584C227.907 11.9147 228.328 12.3307 228.606 12.832V11.232H230.078V20H228.606V18.368C228.318 18.88 227.886 19.3067 227.31 19.648C226.744 19.9787 226.083 20.144 225.326 20.144C224.547 20.144 223.843 19.952 223.214 19.568C222.584 19.184 222.088 18.6453 221.726 17.952C221.363 17.2587 221.182 16.4693 221.182 15.584ZM228.606 15.6C228.606 14.9387 228.472 14.3627 228.206 13.872C227.939 13.3813 227.576 13.008 227.118 12.752C226.67 12.4853 226.174 12.352 225.63 12.352C225.086 12.352 224.59 12.48 224.142 12.736C223.694 12.992 223.336 13.3653 223.07 13.856C222.803 14.3467 222.67 14.9227 222.67 15.584C222.67 16.256 222.803 16.8427 223.07 17.344C223.336 17.8347 223.694 18.2133 224.142 18.48C224.59 18.736 225.086 18.864 225.63 18.864C226.174 18.864 226.67 18.736 227.118 18.48C227.576 18.2133 227.939 17.8347 228.206 17.344C228.472 16.8427 228.606 16.2613 228.606 15.6ZM233.05 9.808C232.773 9.808 232.538 9.712 232.346 9.52C232.154 9.328 232.058 9.09333 232.058 8.816C232.058 8.53867 232.154 8.304 232.346 8.112C232.538 7.92 232.773 7.824 233.05 7.824C233.317 7.824 233.541 7.92 233.722 8.112C233.914 8.304 234.01 8.53867 234.01 8.816C234.01 9.09333 233.914 9.328 233.722 9.52C233.541 9.712 233.317 9.808 233.05 9.808ZM233.754 11.232V20H232.298V11.232H233.754ZM237.452 8.16V20H235.996V8.16H237.452ZM240.157 20.096C239.88 20.096 239.645 20 239.453 19.808C239.261 19.616 239.165 19.3813 239.165 19.104C239.165 18.8267 239.261 18.592 239.453 18.4C239.645 18.208 239.88 18.112 240.157 18.112C240.424 18.112 240.648 18.208 240.829 18.4C241.021 18.592 241.117 18.8267 241.117 19.104C241.117 19.3813 241.021 19.616 240.829 19.808C240.648 20 240.424 20.096 240.157 20.096ZM242.269 15.6C242.269 14.6933 242.45 13.904 242.813 13.232C243.175 12.5493 243.677 12.0213 244.317 11.648C244.967 11.2747 245.709 11.088 246.541 11.088C247.618 11.088 248.503 11.3493 249.197 11.872C249.901 12.3947 250.365 13.12 250.589 14.048H249.021C248.871 13.5147 248.578 13.0933 248.141 12.784C247.714 12.4747 247.181 12.32 246.541 12.32C245.709 12.32 245.037 12.608 244.525 13.184C244.013 13.7493 243.757 14.5547 243.757 15.6C243.757 16.656 244.013 17.472 244.525 18.048C245.037 18.624 245.709 18.912 246.541 18.912C247.181 18.912 247.714 18.7627 248.141 18.464C248.567 18.1653 248.861 17.7387 249.021 17.184H250.589C250.354 18.08 249.885 18.8 249.181 19.344C248.477 19.8773 247.597 20.144 246.541 20.144C245.709 20.144 244.967 19.9573 244.317 19.584C243.677 19.2107 243.175 18.6827 242.813 18C242.45 17.3173 242.269 16.5173 242.269 15.6ZM256.115 20.144C255.294 20.144 254.547 19.9573 253.875 19.584C253.214 19.2107 252.691 18.6827 252.307 18C251.934 17.3067 251.747 16.5067 251.747 15.6C251.747 14.704 251.939 13.9147 252.323 13.232C252.718 12.5387 253.251 12.0107 253.923 11.648C254.595 11.2747 255.347 11.088 256.179 11.088C257.011 11.088 257.763 11.2747 258.435 11.648C259.107 12.0107 259.635 12.5333 260.019 13.216C260.414 13.8987 260.611 14.6933 260.611 15.6C260.611 16.5067 260.409 17.3067 260.003 18C259.609 18.6827 259.07 19.2107 258.387 19.584C257.705 19.9573 256.947 20.144 256.115 20.144ZM256.115 18.864C256.638 18.864 257.129 18.7413 257.587 18.496C258.046 18.2507 258.414 17.8827 258.691 17.392C258.979 16.9013 259.123 16.304 259.123 15.6C259.123 14.896 258.985 14.2987 258.707 13.808C258.43 13.3173 258.067 12.9547 257.619 12.72C257.171 12.4747 256.686 12.352 256.163 12.352C255.63 12.352 255.139 12.4747 254.691 12.72C254.254 12.9547 253.902 13.3173 253.635 13.808C253.369 14.2987 253.235 14.896 253.235 15.6C253.235 16.3147 253.363 16.9173 253.619 17.408C253.886 17.8987 254.238 18.2667 254.675 18.512C255.113 18.7467 255.593 18.864 256.115 18.864ZM272.83 11.072C273.512 11.072 274.12 11.216 274.654 11.504C275.187 11.7813 275.608 12.2027 275.918 12.768C276.227 13.3333 276.382 14.0213 276.382 14.832V20H274.942V15.04C274.942 14.1653 274.723 13.4987 274.286 13.04C273.859 12.5707 273.278 12.336 272.542 12.336C271.784 12.336 271.182 12.5813 270.734 13.072C270.286 13.552 270.062 14.2507 270.062 15.168V20H268.622V15.04C268.622 14.1653 268.403 13.4987 267.966 13.04C267.539 12.5707 266.958 12.336 266.222 12.336C265.464 12.336 264.862 12.5813 264.414 13.072C263.966 13.552 263.742 14.2507 263.742 15.168V20H262.286V11.232H263.742V12.496C264.03 12.0373 264.414 11.6853 264.894 11.44C265.384 11.1947 265.923 11.072 266.51 11.072C267.246 11.072 267.896 11.2373 268.462 11.568C269.027 11.8987 269.448 12.384 269.726 13.024C269.971 12.4053 270.376 11.9253 270.942 11.584C271.507 11.2427 272.136 11.072 272.83 11.072Z" fill="white"/>
</svg>
