<svg width="151" height="16" viewBox="0 0 151 16" fill="none" xmlns="http://www.w3.org/2000/svg">
<rect y="8" width="151" height="8" fill="#314A71" fill-opacity="0.61"/>
<path d="M10.18 1.04V15H7.38V1.04H10.18ZM24.8864 15H22.0864L15.7464 5.42V15H12.9464V1.02H15.7464L22.0864 10.62V1.02H24.8864V15ZM32.4734 15.14C31.5001 15.14 30.6201 14.9733 29.8334 14.64C29.0601 14.3067 28.4468 13.8267 27.9934 13.2C27.5401 12.5733 27.3068 11.8333 27.2934 10.98H30.2934C30.3334 11.5533 30.5334 12.0067 30.8934 12.34C31.2668 12.6733 31.7734 12.84 32.4134 12.84C33.0668 12.84 33.5801 12.6867 33.9534 12.38C34.3268 12.06 34.5134 11.6467 34.5134 11.14C34.5134 10.7267 34.3868 10.3867 34.1334 10.12C33.8801 9.85333 33.5601 9.64667 33.1734 9.5C32.8001 9.34 32.2801 9.16667 31.6134 8.98C30.7068 8.71333 29.9668 8.45333 29.3934 8.2C28.8334 7.93333 28.3468 7.54 27.9334 7.02C27.5334 6.48667 27.3334 5.78 27.3334 4.9C27.3334 4.07333 27.5401 3.35333 27.9534 2.74C28.3668 2.12667 28.9468 1.66 29.6934 1.34C30.4401 1.00667 31.2934 0.84 32.2534 0.84C33.6934 0.84 34.8601 1.19333 35.7534 1.9C36.6601 2.59333 37.1601 3.56667 37.2534 4.82H34.1734C34.1468 4.34 33.9401 3.94667 33.5534 3.64C33.1801 3.32 32.6801 3.16 32.0534 3.16C31.5068 3.16 31.0668 3.3 30.7334 3.58C30.4134 3.86 30.2534 4.26667 30.2534 4.8C30.2534 5.17333 30.3734 5.48667 30.6134 5.74C30.8668 5.98 31.1734 6.18 31.5334 6.34C31.9068 6.48667 32.4268 6.66 33.0934 6.86C34.0001 7.12667 34.7401 7.39333 35.3134 7.66C35.8868 7.92667 36.3801 8.32667 36.7934 8.86C37.2068 9.39333 37.4134 10.0933 37.4134 10.96C37.4134 11.7067 37.2201 12.4 36.8334 13.04C36.4468 13.68 35.8801 14.1933 35.1334 14.58C34.3868 14.9533 33.5001 15.14 32.4734 15.14ZM49.3409 1.04V3.3H45.6209V15H42.8209V3.3H39.1009V1.04H49.3409ZM59.9439 12.34H54.3839L53.4639 15H50.5239L55.5439 1.02H58.8039L63.8239 15H60.8639L59.9439 12.34ZM59.1839 10.1L57.1639 4.26L55.1439 10.1H59.1839ZM75.4203 5.24C75.1003 4.65333 74.6603 4.20667 74.1003 3.9C73.5403 3.59333 72.887 3.44 72.1403 3.44C71.3136 3.44 70.5803 3.62667 69.9403 4C69.3003 4.37333 68.8003 4.90667 68.4403 5.6C68.0803 6.29333 67.9003 7.09333 67.9003 8C67.9003 8.93333 68.0803 9.74667 68.4403 10.44C68.8136 11.1333 69.327 11.6667 69.9803 12.04C70.6336 12.4133 71.3936 12.6 72.2603 12.6C73.327 12.6 74.2003 12.32 74.8803 11.76C75.5603 11.1867 76.007 10.3933 76.2203 9.38H71.4203V7.24H78.9803V9.68C78.7936 10.6533 78.3936 11.5533 77.7803 12.38C77.167 13.2067 76.3736 13.8733 75.4003 14.38C74.4403 14.8733 73.3603 15.12 72.1603 15.12C70.8136 15.12 69.5936 14.82 68.5003 14.22C67.4203 13.6067 66.567 12.76 65.9403 11.68C65.327 10.6 65.0203 9.37333 65.0203 8C65.0203 6.62667 65.327 5.4 65.9403 4.32C66.567 3.22667 67.4203 2.38 68.5003 1.78C69.5936 1.16667 70.807 0.86 72.1403 0.86C73.7136 0.86 75.0803 1.24667 76.2403 2.02C77.4003 2.78 78.2003 3.85333 78.6403 5.24H75.4203ZM88.2519 15L85.1719 9.56H83.8519V15H81.0519V1.04H86.2919C87.3719 1.04 88.2919 1.23333 89.0519 1.62C89.8119 1.99333 90.3785 2.50667 90.7519 3.16C91.1385 3.8 91.3319 4.52 91.3319 5.32C91.3319 6.24 91.0652 7.07333 90.5319 7.82C89.9985 8.55333 89.2052 9.06 88.1519 9.34L91.4919 15H88.2519ZM83.8519 7.46H86.1919C86.9519 7.46 87.5185 7.28 87.8919 6.92C88.2652 6.54667 88.4519 6.03333 88.4519 5.38C88.4519 4.74 88.2652 4.24667 87.8919 3.9C87.5185 3.54 86.9519 3.36 86.1919 3.36H83.8519V7.46ZM102.424 12.34H96.8644L95.9444 15H93.0044L98.0244 1.02H101.284L106.304 15H103.344L102.424 12.34ZM101.664 10.1L99.6444 4.26L97.6244 10.1H101.664ZM123.401 1.04V15H120.601V5.92L116.861 15H114.741L110.981 5.92V15H108.181V1.04H111.361L115.801 11.42L120.241 1.04H123.401Z" fill="#EFEFEF"/>
</svg>
