<svg width="588" height="16" viewBox="0 0 588 16" fill="none" xmlns="http://www.w3.org/2000/svg">
<rect y="7" width="588" height="8" fill="#314A71" fill-opacity="0.61"/>
<path d="M29.56 5.36C29.56 6.10667 29.38 6.80667 29.02 7.46C28.6733 8.11333 28.12 8.64 27.36 9.04C26.6133 9.44 25.6667 9.64 24.52 9.64H22.18V15H19.38V1.04H24.52C25.6 1.04 26.52 1.22667 27.28 1.6C28.04 1.97333 28.6067 2.48667 28.98 3.14C29.3667 3.79333 29.56 4.53333 29.56 5.36ZM24.4 7.38C25.1733 7.38 25.7467 7.20667 26.12 6.86C26.4933 6.5 26.68 6 26.68 5.36C26.68 4 25.92 3.32 24.4 3.32H22.18V7.38H24.4ZM38.028 15.14C36.7213 15.14 35.5213 14.8333 34.428 14.22C33.3346 13.6067 32.468 12.76 31.828 11.68C31.188 10.5867 30.868 9.35333 30.868 7.98C30.868 6.62 31.188 5.4 31.828 4.32C32.468 3.22667 33.3346 2.37333 34.428 1.76C35.5213 1.14667 36.7213 0.84 38.028 0.84C39.348 0.84 40.548 1.14667 41.628 1.76C42.7213 2.37333 43.5813 3.22667 44.208 4.32C44.848 5.4 45.168 6.62 45.168 7.98C45.168 9.35333 44.848 10.5867 44.208 11.68C43.5813 12.76 42.7213 13.6067 41.628 14.22C40.5346 14.8333 39.3346 15.14 38.028 15.14ZM38.028 12.64C38.868 12.64 39.608 12.4533 40.248 12.08C40.888 11.6933 41.388 11.1467 41.748 10.44C42.108 9.73333 42.288 8.91333 42.288 7.98C42.288 7.04667 42.108 6.23333 41.748 5.54C41.388 4.83333 40.888 4.29333 40.248 3.92C39.608 3.54667 38.868 3.36 38.028 3.36C37.188 3.36 36.4413 3.54667 35.788 3.92C35.148 4.29333 34.648 4.83333 34.288 5.54C33.928 6.23333 33.748 7.04667 33.748 7.98C33.748 8.91333 33.928 9.73333 34.288 10.44C34.648 11.1467 35.148 11.6933 35.788 12.08C36.4413 12.4533 37.188 12.64 38.028 12.64ZM54.4511 15L51.3711 9.56H50.0511V15H47.2511V1.04H52.4911C53.5711 1.04 54.4911 1.23333 55.2511 1.62C56.0111 1.99333 56.5778 2.50667 56.9511 3.16C57.3378 3.8 57.5311 4.52 57.5311 5.32C57.5311 6.24 57.2644 7.07333 56.7311 7.82C56.1978 8.55333 55.4044 9.06 54.3511 9.34L57.6911 15H54.4511ZM50.0511 7.46H52.3911C53.1511 7.46 53.7178 7.28 54.0911 6.92C54.4644 6.54667 54.6511 6.03333 54.6511 5.38C54.6511 4.74 54.4644 4.24667 54.0911 3.9C53.7178 3.54 53.1511 3.36 52.3911 3.36H50.0511V7.46ZM69.5636 1.04V3.3H65.8436V15H63.0436V3.3H59.3236V1.04H69.5636ZM74.4066 1.04V15H71.6066V1.04H74.4066ZM85.793 1.04V3.3H79.973V6.88H84.433V9.1H79.973V15H77.173V1.04H85.793ZM94.2584 15.14C92.9518 15.14 91.7518 14.8333 90.6584 14.22C89.5651 13.6067 88.6984 12.76 88.0584 11.68C87.4184 10.5867 87.0984 9.35333 87.0984 7.98C87.0984 6.62 87.4184 5.4 88.0584 4.32C88.6984 3.22667 89.5651 2.37333 90.6584 1.76C91.7518 1.14667 92.9518 0.84 94.2584 0.84C95.5784 0.84 96.7784 1.14667 97.8584 1.76C98.9518 2.37333 99.8118 3.22667 100.438 4.32C101.078 5.4 101.398 6.62 101.398 7.98C101.398 9.35333 101.078 10.5867 100.438 11.68C99.8118 12.76 98.9518 13.6067 97.8584 14.22C96.7651 14.8333 95.5651 15.14 94.2584 15.14ZM94.2584 12.64C95.0984 12.64 95.8384 12.4533 96.4784 12.08C97.1184 11.6933 97.6184 11.1467 97.9784 10.44C98.3384 9.73333 98.5184 8.91333 98.5184 7.98C98.5184 7.04667 98.3384 6.23333 97.9784 5.54C97.6184 4.83333 97.1184 4.29333 96.4784 3.92C95.8384 3.54667 95.0984 3.36 94.2584 3.36C93.4184 3.36 92.6718 3.54667 92.0184 3.92C91.3784 4.29333 90.8784 4.83333 90.5184 5.54C90.1584 6.23333 89.9784 7.04667 89.9784 7.98C89.9784 8.91333 90.1584 9.73333 90.5184 10.44C90.8784 11.1467 91.3784 11.6933 92.0184 12.08C92.6718 12.4533 93.4184 12.64 94.2584 12.64ZM106.282 12.78H110.882V15H103.482V1.04H106.282V12.78ZM115.461 1.04V15H112.661V1.04H115.461ZM124.708 15.14C123.401 15.14 122.201 14.8333 121.108 14.22C120.014 13.6067 119.148 12.76 118.508 11.68C117.868 10.5867 117.548 9.35333 117.548 7.98C117.548 6.62 117.868 5.4 118.508 4.32C119.148 3.22667 120.014 2.37333 121.108 1.76C122.201 1.14667 123.401 0.84 124.708 0.84C126.028 0.84 127.228 1.14667 128.308 1.76C129.401 2.37333 130.261 3.22667 130.888 4.32C131.528 5.4 131.848 6.62 131.848 7.98C131.848 9.35333 131.528 10.5867 130.888 11.68C130.261 12.76 129.401 13.6067 128.308 14.22C127.214 14.8333 126.014 15.14 124.708 15.14ZM124.708 12.64C125.548 12.64 126.288 12.4533 126.928 12.08C127.568 11.6933 128.068 11.1467 128.428 10.44C128.788 9.73333 128.968 8.91333 128.968 7.98C128.968 7.04667 128.788 6.23333 128.428 5.54C128.068 4.83333 127.568 4.29333 126.928 3.92C126.288 3.54667 125.548 3.36 124.708 3.36C123.868 3.36 123.121 3.54667 122.468 3.92C121.828 4.29333 121.328 4.83333 120.968 5.54C120.608 6.23333 120.428 7.04667 120.428 7.98C120.428 8.91333 120.608 9.73333 120.968 10.44C121.328 11.1467 121.828 11.6933 122.468 12.08C123.121 12.4533 123.868 12.64 124.708 12.64Z" fill="#EFEFEF"/>
<path d="M249.18 12.78H253.78V15H246.38V1.04H249.18V12.78ZM258.36 1.04V15H255.56V1.04H258.36ZM273.066 15H270.266L263.926 5.42V15H261.126V1.02H263.926L270.266 10.62V1.02H273.066V15ZM283.713 15L278.633 8.78V15H275.833V1.04H278.633V7.3L283.713 1.04H287.093L281.333 7.96L287.253 15H283.713ZM291.895 3.3V6.8H296.595V9.02H291.895V12.72H297.195V15H289.095V1.02H297.195V3.3H291.895ZM304.619 1.04C306.086 1.04 307.373 1.32667 308.479 1.9C309.599 2.47333 310.459 3.29333 311.059 4.36C311.673 5.41333 311.979 6.64 311.979 8.04C311.979 9.44 311.673 10.6667 311.059 11.72C310.459 12.76 309.599 13.5667 308.479 14.14C307.373 14.7133 306.086 15 304.619 15H299.739V1.04H304.619ZM304.519 12.62C305.986 12.62 307.119 12.22 307.919 11.42C308.719 10.62 309.119 9.49333 309.119 8.04C309.119 6.58667 308.719 5.45333 307.919 4.64C307.119 3.81333 305.986 3.4 304.519 3.4H302.539V12.62H304.519ZM316.875 1.04V15H314.075V1.04H316.875ZM331.582 15H328.782L322.442 5.42V15H319.642V1.02H322.442L328.782 10.62V1.02H331.582V15Z" fill="#EFEFEF"/>
<path d="M449.18 1.04V15H446.38V1.04H449.18ZM463.886 15H461.086L454.746 5.42V15H451.946V1.02H454.746L461.086 10.62V1.02H463.886V15ZM471.473 15.14C470.5 15.14 469.62 14.9733 468.833 14.64C468.06 14.3067 467.447 13.8267 466.993 13.2C466.54 12.5733 466.307 11.8333 466.293 10.98H469.293C469.333 11.5533 469.533 12.0067 469.893 12.34C470.267 12.6733 470.773 12.84 471.413 12.84C472.067 12.84 472.58 12.6867 472.953 12.38C473.327 12.06 473.513 11.6467 473.513 11.14C473.513 10.7267 473.387 10.3867 473.133 10.12C472.88 9.85333 472.56 9.64667 472.173 9.5C471.8 9.34 471.28 9.16667 470.613 8.98C469.707 8.71333 468.967 8.45333 468.393 8.2C467.833 7.93333 467.347 7.54 466.933 7.02C466.533 6.48667 466.333 5.78 466.333 4.9C466.333 4.07333 466.54 3.35333 466.953 2.74C467.367 2.12667 467.947 1.66 468.693 1.34C469.44 1.00667 470.293 0.84 471.253 0.84C472.693 0.84 473.86 1.19333 474.753 1.9C475.66 2.59333 476.16 3.56667 476.253 4.82H473.173C473.147 4.34 472.94 3.94667 472.553 3.64C472.18 3.32 471.68 3.16 471.053 3.16C470.507 3.16 470.067 3.3 469.733 3.58C469.413 3.86 469.253 4.26667 469.253 4.8C469.253 5.17333 469.373 5.48667 469.613 5.74C469.867 5.98 470.173 6.18 470.533 6.34C470.907 6.48667 471.427 6.66 472.093 6.86C473 7.12667 473.74 7.39333 474.313 7.66C474.887 7.92667 475.38 8.32667 475.793 8.86C476.207 9.39333 476.413 10.0933 476.413 10.96C476.413 11.7067 476.22 12.4 475.833 13.04C475.447 13.68 474.88 14.1933 474.133 14.58C473.387 14.9533 472.5 15.14 471.473 15.14ZM488.341 1.04V3.3H484.621V15H481.821V3.3H478.101V1.04H488.341ZM498.944 12.34H493.384L492.464 15H489.524L494.544 1.02H497.804L502.824 15H499.864L498.944 12.34ZM498.184 10.1L496.164 4.26L494.144 10.1H498.184ZM514.42 5.24C514.1 4.65333 513.66 4.20667 513.1 3.9C512.54 3.59333 511.887 3.44 511.14 3.44C510.314 3.44 509.58 3.62667 508.94 4C508.3 4.37333 507.8 4.90667 507.44 5.6C507.08 6.29333 506.9 7.09333 506.9 8C506.9 8.93333 507.08 9.74667 507.44 10.44C507.814 11.1333 508.327 11.6667 508.98 12.04C509.634 12.4133 510.394 12.6 511.26 12.6C512.327 12.6 513.2 12.32 513.88 11.76C514.56 11.1867 515.007 10.3933 515.22 9.38H510.42V7.24H517.98V9.68C517.794 10.6533 517.394 11.5533 516.78 12.38C516.167 13.2067 515.374 13.8733 514.4 14.38C513.44 14.8733 512.36 15.12 511.16 15.12C509.814 15.12 508.594 14.82 507.5 14.22C506.42 13.6067 505.567 12.76 504.94 11.68C504.327 10.6 504.02 9.37333 504.02 8C504.02 6.62667 504.327 5.4 504.94 4.32C505.567 3.22667 506.42 2.38 507.5 1.78C508.594 1.16667 509.807 0.86 511.14 0.86C512.714 0.86 514.08 1.24667 515.24 2.02C516.4 2.78 517.2 3.85333 517.64 5.24H514.42ZM527.252 15L524.172 9.56H522.852V15H520.052V1.04H525.292C526.372 1.04 527.292 1.23333 528.052 1.62C528.812 1.99333 529.379 2.50667 529.752 3.16C530.139 3.8 530.332 4.52 530.332 5.32C530.332 6.24 530.065 7.07333 529.532 7.82C528.999 8.55333 528.205 9.06 527.152 9.34L530.492 15H527.252ZM522.852 7.46H525.192C525.952 7.46 526.519 7.28 526.892 6.92C527.265 6.54667 527.452 6.03333 527.452 5.38C527.452 4.74 527.265 4.24667 526.892 3.9C526.519 3.54 525.952 3.36 525.192 3.36H522.852V7.46ZM541.424 12.34H535.864L534.944 15H532.004L537.024 1.02H540.284L545.304 15H542.344L541.424 12.34ZM540.664 10.1L538.644 4.26L536.624 10.1H540.664ZM562.401 1.04V15H559.601V5.92L555.861 15H553.741L549.981 5.92V15H547.181V1.04H550.361L554.801 11.42L559.241 1.04H562.401Z" fill="#EFEFEF"/>
</svg>
